<svg width="115" height="50" viewBox="0 0 115 50" fill="none" xmlns="http://www.w3.org/2000/svg">
<path d="M49.4545 23.6736V43.7359" stroke="#0AC08F" stroke-width="9.22866" stroke-linecap="round"/>
<circle cx="49.3541" cy="6.21932" r="6.21932" fill="#2BB0E8"/>
<path fill-rule="evenodd" clip-rule="evenodd" d="M113.53 24.1721C111.825 20.6773 109.026 18.8132 105.744 18.5195C102.742 18.2509 99.7366 19.3274 97.2559 20.6888C94.7173 22.0821 92.3619 23.9741 90.5445 25.8482C89.6317 26.7895 88.8157 27.7662 88.1653 28.7206C87.5427 29.6344 86.9519 30.701 86.6694 31.8072C85.748 35.416 85.7383 38.6785 86.7699 41.4526C87.8256 44.2913 89.8534 46.2939 92.3567 47.4994C97.1509 49.808 103.561 49.1942 109.27 47.0401C110.929 46.4142 111.766 44.5622 111.14 42.9035C110.514 41.2449 108.662 40.4077 107.003 41.0336C102.079 42.8919 97.6824 42.9384 95.1421 41.7151C94.7583 41.5303 94.4172 41.3182 94.1173 41.0764C95.5297 41.0487 97.1798 40.8028 98.7795 40.451C101.141 39.9315 103.834 39.0818 106.291 37.9026C108.684 36.754 111.18 35.1377 112.776 32.9225C114.528 30.4892 115.106 27.4035 113.53 24.1721ZM93.4435 34.6398C93.1639 34.5999 92.8876 34.5972 92.6196 34.6281C92.69 34.2389 92.7793 33.8283 92.8898 33.3954C92.8898 33.3954 92.8919 33.3876 92.8967 33.3729C92.9017 33.3576 92.9093 33.3358 92.9204 33.3075C92.9429 33.25 92.9768 33.1727 93.0257 33.0754C93.1249 32.8781 93.2702 32.6299 93.4707 32.3357C93.8736 31.7444 94.4418 31.0512 95.1533 30.3175C96.5847 28.8415 98.4386 27.363 100.345 26.3169C102.309 25.2391 103.983 24.8075 105.171 24.9139C106.079 24.9951 106.98 25.389 107.759 26.9868C108.189 27.8682 108.09 28.4439 107.566 29.1704C106.886 30.115 105.508 31.157 103.513 32.1149C101.581 33.0423 99.3712 33.7474 97.4002 34.1809C95.3163 34.6393 93.9025 34.7054 93.4435 34.6398Z" fill="white"/>
<path fill-rule="evenodd" clip-rule="evenodd" d="M75.3147 19.316C77.2749 19.9411 79.3504 21.1907 80.541 23.4291C81.4516 25.141 80.802 27.267 79.0901 28.1776C77.3782 29.0881 75.2523 28.4385 74.3417 26.7266C74.2785 26.6078 74.0239 26.2745 73.1812 26.0058C72.3496 25.7406 71.2376 25.6468 70.0773 25.7937C68.9068 25.942 67.9492 26.3014 67.3626 26.6922C67.089 26.8744 66.9662 27.0094 66.9144 27.0834C66.9752 27.2358 67.2235 27.6778 68.1931 28.4479C69.5209 29.5024 71.3586 30.5108 73.511 31.6918L73.7405 31.8177C75.766 32.9294 78.256 34.2961 79.9487 35.8866C80.8215 36.7066 81.7798 37.8511 82.2229 39.3578C82.7134 41.0259 82.4486 42.7106 81.5757 44.2037C78.7649 49.0117 73.6204 50.3546 69.3991 49.9245C67.2616 49.7068 65.1593 49.0334 63.3819 47.9687C61.6293 46.9188 59.9714 45.3476 59.1302 43.2224C58.4165 41.4195 59.2995 39.3794 61.1024 38.6658C62.9054 37.9521 64.9454 38.8351 65.6591 40.6381C65.7708 40.9204 66.1317 41.4306 66.9903 41.945C67.8242 42.4445 68.9256 42.8181 70.1109 42.9389C72.3229 43.1643 74.163 42.5066 75.2287 41.089C75.2017 41.0622 75.1724 41.0339 75.1405 41.0039C74.2282 40.1468 72.6151 39.21 70.3564 37.9702C70.2949 37.9365 70.2329 37.9025 70.1706 37.8683L69.9292 37.7361C67.9727 36.6648 65.6412 35.3881 63.826 33.9465C61.9871 32.486 59.6002 30.0174 59.8994 26.4867C60.1235 23.8424 61.7724 21.9791 63.4693 20.8485C65.1633 19.72 67.2203 19.0777 69.1949 18.8276C71.1796 18.5762 73.3433 18.6873 75.3147 19.316ZM66.8956 27.0226C66.8956 27.0226 66.8961 27.0246 66.8965 27.0286C66.8957 27.0246 66.8956 27.0226 66.8956 27.0226ZM66.8894 27.1238C66.8854 27.1402 66.8813 27.1481 66.8803 27.1479C66.8792 27.1477 66.8812 27.1395 66.8894 27.1238Z" fill="white"/>
<path fill-rule="evenodd" clip-rule="evenodd" d="M0.239837 21.1541C0.911084 19.5133 2.78539 18.7273 4.42621 19.3985L7.79877 20.7782L8.32914 21.9205C8.77379 22.8782 9.42695 24.9682 10.0927 27.1481C10.3436 27.9697 10.6067 28.8409 10.8784 29.7402L10.8787 29.7414L10.8788 29.7417C11.3797 31.4 11.9094 33.1537 12.4442 34.8676C12.7526 35.8559 13.0566 36.8108 13.3504 37.7045C13.3891 37.6205 13.4277 37.5371 13.4662 37.4543C14.1036 36.0837 14.8483 34.5918 15.6409 33.4087C16.033 32.8233 16.5268 32.1757 17.126 31.6418C17.6729 31.1544 18.7176 30.3944 20.1635 30.3944C21.9313 30.3944 23.0654 31.5539 23.5113 32.063C24.0727 32.7037 24.5342 33.4763 24.9026 34.1711C25.4797 35.2595 26.0415 36.5738 26.549 37.8176C26.8219 37.0391 27.1084 36.2114 27.4048 35.3493C27.7495 34.3468 28.1074 33.2983 28.4712 32.2323L28.4747 32.2221C29.6735 28.7097 30.9361 25.0101 32.0017 22.1512L32.4433 20.9666L33.574 20.4012C34.0128 20.1818 34.41 20.0271 34.6999 19.9142L34.7717 19.8862C35.0708 19.7694 35.347 19.6591 35.7206 19.4787C37.3171 18.708 39.2361 19.3774 40.0069 20.974C40.7776 22.5705 40.1082 24.4895 38.5117 25.2602C38.1347 25.4422 37.8138 25.5813 37.54 25.6937C36.62 28.2328 35.5877 31.2575 34.5745 34.2258L34.5745 34.226L34.5739 34.2277C34.2032 35.3138 33.835 36.3923 33.4759 37.4367C32.7265 39.6164 32.0152 41.6504 31.4163 43.2439C31.1177 44.0385 30.8347 44.7566 30.5798 45.3434C30.3668 45.8338 30.0535 46.5228 29.6692 47.0444C29.2444 47.6209 28.3746 48.4432 27.0015 48.5285C25.7384 48.6071 24.8437 48.001 24.438 47.6656C23.675 47.0347 23.179 46.144 22.9147 45.6453C22.3328 44.5478 21.7125 42.9997 21.1523 41.6015C21.1093 41.4942 21.0667 41.3877 21.0244 41.2824C20.6596 40.3733 20.31 39.5112 19.9738 38.7433C19.7525 39.179 19.5231 39.6546 19.2873 40.1618C18.906 40.9814 18.56 41.7662 18.2197 42.5383L18.2195 42.5386C17.9998 43.0371 17.7822 43.5305 17.5592 44.0243C17.2929 44.6138 17.0227 45.1932 16.7643 45.6911C16.5414 46.1207 16.2015 46.7423 15.768 47.2425C15.3302 47.7476 14.5889 48.2993 13.5475 48.4099C12.5629 48.5144 11.7962 48.1708 11.3631 47.9028C10.6048 47.4333 10.1585 46.76 9.98155 46.4849C9.5293 45.7822 9.11513 44.8432 8.75582 43.9425C8.00308 42.0556 7.14351 39.4326 6.31574 36.78C5.7735 35.0424 5.22606 33.2301 4.71907 31.5518L4.71899 31.5515L4.71885 31.551C4.44978 30.6603 4.1921 29.8073 3.95265 29.0232C3.51793 27.5997 3.16572 26.4827 2.90721 25.7135L1.99542 25.3405C0.354589 24.6692 -0.431409 22.7949 0.239837 21.1541ZM18.6824 36.2935C18.6849 36.2964 18.6876 36.2994 18.6903 36.3027C18.6302 36.2471 18.6272 36.2305 18.6824 36.2935ZM15.3802 43.0106L15.3759 43.0039L15.3714 42.9968C15.4113 43.0497 15.4136 43.0626 15.3802 43.0106Z" fill="white"/>
</svg>
